<?xml version="1.0" encoding="UTF-8"?>
<svg id="Layer_1" data-name="Layer 1" xmlns="http://www.w3.org/2000/svg" viewBox="0 0 4096 4096">
  <defs>
    <style>
      .cls-1 {
        fill-rule: evenodd;
      }

      .cls-1, .cls-2 {
        fill: #fff;
      }

      .cls-3 {
        letter-spacing: -.03em;
      }

      .cls-2 {
        font-family: DINCondensed-Bold, 'DIN Condensed';
        font-size: 286.13px;
        font-weight: 700;
      }
    </style>
  </defs>
  <path class="cls-1" d="M2789.03,2383.55c0,4.28,3.51,7.8,7.8,7.8h192.88c4.28-.03,7.74-3.51,7.75-7.8v-669.28c-.01-4.28-3.47-7.76-7.75-7.8h-192.88c-4.3.01-7.78,3.49-7.8,7.8v669.28h0ZM1888.64,2375.27l-284-657.6c-2.07-4.18-6.23-6.92-10.89-7.17h-285.78c-4.66.24-8.82,2.99-10.89,7.17l-284,657.6c-1.71,3.93.42,7.15,4.7,7.15h200.95c4.64-.22,8.76-3.01,10.7-7.23l41.05-101.61c1.96-4.21,6.08-6.99,10.72-7.23h339.87c4.62.22,8.72,3.05,10.55,7.29l38.58,101.49c1.53,3.99,6.27,7.29,10.55,7.29h203.18c4.28,0,6.4-3.24,4.7-7.15h0ZM1326.97,2123.47l93.75-244.42c11.16-24.56,21.78-27.9,31.81-27.9,10.6,0,22.88,10.03,29.59,29.01l92.46,243.31h-247.62ZM3638.46,1702.35h-220.05c-266.26,3.97-306.99,88.74-306.99,336.79,0,42.09,0,84.2,2.05,126.27,7.19,165.31,97.56,216.66,248.47,227.95,47.27,3.07,157.27,5.14,161.8,4.93,0,0,124.02-1.86,171.23-4.93,150.96-11.29,241.28-62.64,248.47-227.95,2.09-42.09,2.09-84.18,2.09-126.27-.02-248.05-40.8-332.82-307.07-336.79h0ZM3735.02,2067.9c0,112.94-7.19,157.1-131.44,160.17-32.41,1.8-117.85,1.8-150.25,0-124.2-3.07-131.44-47.23-131.44-160.17v-27.71c0-26.69,0-53.4,3.09-80.11,12.33-94.47,83.16-89.32,152.98-91.37,25.6-.4,75.34-.4,100.94,0,69.85,2.05,140.65-3.07,152.98,91.37,3.09,26.71,3.09,53.42,3.09,80.11v27.71h.02,0ZM772.34,2126.86c-5.68,69.76-29.99,98.75-129.72,101.22-32.41,1.8-117.85,1.8-150.25,0-124.25-3.07-131.44-47.23-131.44-160.17v-27.71c0-26.69,0-53.4,3.07-80.11,12.31-94.47,83.18-89.32,153-91.37,25.6-.4,75.34-.4,100.96,0,66.63,1.96,134.13-2.55,150.89,79.06h213.01c-12.37-178-73.9-241.97-304.34-245.42h-220.07c-266.24,3.97-307.01,88.74-307.01,336.79,0,42.09,0,84.2,2.07,126.27,7.19,165.31,97.54,216.66,248.49,227.95,47.23,3.07,157.25,5.14,161.8,4.93,0,0,123.98-1.86,171.21-4.93,150.94-11.29,241.28-62.64,248.49-227.95.63-12.85,1.02-25.71,1.32-38.58h-211.5v.02h0ZM2161.84,2123.45c46.21.33,91.39,1.69,137.6,2.05l57.03,2.47c47.23,2.38,118.54-14.69,118.67,62.47.08,50.07-48.32,51.16-85.31,52.94-53.4,1.67-45.52,2.57-98.9,2.17-23.12-.02-46.24-.53-69.34-1.53-46.21-2.4-76.91-13.92-79.65-65.29l-204.31-1.48c.71,43.12-2.8,76.95,19.5,117.14,48.7,81.47,145.27,96.6,229.48,98.25l98.9,2.78c79.06.59,191.69.4,264.75-18.58,109.03-26.92,128.01-96.62,128.78-198.25.42-55.32-12.41-97.33-35.51-127.63-30.49-40-78.94-59.67-138.67-62.89-114.05-6.12-139.65-8.21-253.61-9.07l-37.22-.27c-45.18-.33-96.43-14.78-96.01-70.2.44-58.54,46.63-61.32,92.88-62.24,22.78-.44,49.93-.4,96.14-.04,32.85.23,23.26,1.71,56.14,1.42,55.8-.46,107.8,3.07,107.36,65.71l205.36,1.5.21-31.01c1.15-154.97-100.78-174.36-214.26-182.31-46.21-3.43-93.44-3.76-139.65-4.12-89.3-.65-88.38,1.4-177.73,5.87-158.21,11.16-232.36,41.4-233.61,209.81-1.36,177.67,91.87,209.14,251,210.33h0Z"/>
  <text class="cls-2" transform="translate(1211.06 2705.79) scale(2.35 1)"><tspan x="0" y="0">A158</tspan><tspan class="cls-3" x="435.76" y="0">W</tspan><tspan x="596.85" y="0">A</tspan></text>
  <text/>
</svg>