<?xml version="1.0" encoding="UTF-8"?>
<svg id="Layer_1" xmlns="http://www.w3.org/2000/svg" version="1.1" viewBox="0 0 2500 2500">
  <!-- Generator: Adobe Illustrator 30.1.0, SVG Export Plug-In . SVG Version: 2.1.1 Build 136)  -->
  <defs>
    <style>
      .st0 {
        fill-rule: evenodd;
      }

      .st0, .st1 {
        fill: #fff;
      }

      .st1 {
        font-family: DINCondensed-Bold, 'DIN Condensed';
        font-size: 425.07px;
        font-weight: 700;
      }
    </style>
  </defs>
  <path class="st0" d="M0,0h2500v2500H0V0Z"/>
  <path class="st0" d="M1709.87,1458.33c0,2.66,2.18,4.84,4.84,4.84h119.7c2.66-.02,4.8-2.18,4.81-4.84v-415.34c0-2.66-2.15-4.82-4.81-4.84h-119.7c-2.67,0-4.83,2.17-4.84,4.84v415.34h0ZM1151.1,1453.2l-176.25-408.09c-1.28-2.6-3.87-4.3-6.76-4.45h-177.35c-2.89.15-5.48,1.85-6.76,4.45l-176.25,408.09c-1.06,2.44.26,4.44,2.92,4.44h124.7c2.88-.14,5.44-1.87,6.64-4.49l25.47-63.06c1.22-2.61,3.78-4.34,6.65-4.49h210.91c2.87.14,5.41,1.89,6.55,4.53l23.94,62.98c.95,2.48,3.89,4.53,6.55,4.53h126.09c2.66,0,3.97-2.01,2.92-4.44h.03ZM802.54,1296.94l58.18-151.68c6.93-15.24,13.51-17.31,19.74-17.31,6.58,0,14.2,6.23,18.37,18l57.38,150.99h-153.67ZM2237.01,1035.6h-136.56c-165.23,2.46-190.51,55.07-190.51,209.01,0,26.12,0,52.26,1.27,78.36,4.46,102.59,60.54,134.46,154.2,141.46,29.34,1.91,97.6,3.19,100.41,3.06,0,0,76.96-1.15,106.26-3.06,93.68-7,149.74-38.87,154.2-141.46,1.3-26.12,1.3-52.24,1.3-78.36-.01-153.94-25.32-206.54-190.56-209.01h0ZM2296.93,1262.45c0,70.09-4.46,97.49-81.57,99.4-20.12,1.12-73.14,1.12-93.24,0-77.08-1.91-81.57-29.31-81.57-99.4v-17.2c0-16.56,0-33.14,1.92-49.71,7.65-58.62,51.61-55.43,94.94-56.7,15.89-.25,46.76-.25,62.64,0,43.34,1.27,87.29-1.91,94.94,56.7,1.92,16.58,1.92,33.15,1.92,49.71v17.2h.02ZM458.35,1299.04c-3.53,43.29-18.61,61.28-80.5,62.81-20.12,1.12-73.14,1.12-93.24,0-77.11-1.91-81.57-29.31-81.57-99.4v-17.2c0-16.56,0-33.14,1.91-49.71,7.64-58.62,51.62-55.43,94.95-56.7,15.89-.25,46.76-.25,62.66,0,41.35,1.22,83.24-1.58,93.64,49.06h132.19c-7.68-110.46-45.86-150.16-188.87-152.3h-136.57c-165.22,2.46-190.53,55.07-190.53,209.01,0,26.12,0,52.26,1.28,78.36,4.46,102.59,60.53,134.46,154.21,141.46,29.31,1.91,97.58,3.19,100.41,3.06,0,0,76.94-1.15,106.25-3.06,93.67-7,149.74-38.87,154.21-141.46.39-7.98.64-15.95.82-23.94h-131.25s0,0,0,0ZM1320.64,1296.92c28.68.21,56.72,1.05,85.39,1.27l35.39,1.53c29.31,1.48,73.56-9.12,73.64,38.77.05,31.08-29.99,31.75-52.94,32.85-33.14,1.04-28.25,1.6-61.37,1.35-14.35-.01-28.7-.33-43.03-.95-28.68-1.49-47.73-8.64-49.43-40.52l-126.79-.92c.44,26.76-1.74,47.75,12.1,72.7,30.22,50.56,90.15,59.95,142.41,60.97l61.37,1.73c49.06.36,118.96.25,164.3-11.53,67.66-16.71,79.44-59.96,79.92-123.03.26-34.33-7.7-60.4-22.04-79.21-18.92-24.82-48.99-37.03-86.05-39.03-70.78-3.8-86.66-5.1-157.39-5.63l-23.1-.17c-28.04-.21-59.84-9.17-59.58-43.57.27-36.33,28.94-38.05,57.64-38.62,14.14-.27,30.98-.25,59.66-.03,20.39.14,14.44,1.06,34.84.88,34.63-.29,66.9,1.91,66.63,40.78l127.44.93.13-19.25c.71-96.17-62.54-108.21-132.97-113.14-28.68-2.13-57.99-2.33-86.66-2.56-55.42-.4-54.85.87-110.29,3.64-98.18,6.93-144.2,25.69-144.98,130.2-.84,110.26,57.02,129.79,155.77,130.53h0v.03Z"/>
  <text class="st1" transform="translate(614.3 1820.37) scale(1.41 1)"><tspan x="0" y="0">A158W</tspan></text>
</svg>